<svg xmlns="http://www.w3.org/2000/svg" viewBox="0 0 75.29 19.18"><g id="Layer_2" data-name="Layer 2"><g id="Layer_1-2" data-name="Layer 1"><path d="M9.72,9.92H5.61V7.17a4.75,4.75,0,0,0-.14-1.49.56.56,0,0,0-.58-.3.6.6,0,0,0-.64.36A5.48,5.48,0,0,0,4.11,7.3v7.35a5.07,5.07,0,0,0,.14,1.5.57.57,0,0,0,.61.35.56.56,0,0,0,.6-.35,5.37,5.37,0,0,0,.15-1.65v-2H9.72v.62a12.21,12.21,0,0,1-.35,3.48,3.59,3.59,0,0,1-1.53,1.8,5.3,5.3,0,0,1-2.93.77,6.14,6.14,0,0,1-3-.65A3.17,3.17,0,0,1,.38,16.71,12,12,0,0,1,0,13.23V8.61A20,20,0,0,1,.12,6.05,3.61,3.61,0,0,1,.82,4.4,3.85,3.85,0,0,1,2.43,3.16a5.81,5.81,0,0,1,2.36-.45,5.74,5.74,0,0,1,3,.7A3.39,3.39,0,0,1,9.35,5.16a10.74,10.74,0,0,1,.37,3.26Z"/><path d="M20.59,12.3a32.26,32.26,0,0,1-.12,3.37,3.78,3.78,0,0,1-.7,1.81,3.73,3.73,0,0,1-1.6,1.26,5.85,5.85,0,0,1-2.34.44,6.06,6.06,0,0,1-2.28-.41,3.85,3.85,0,0,1-1.63-1.25,3.76,3.76,0,0,1-.73-1.81,32.51,32.51,0,0,1-.12-3.41V9.59a32.13,32.13,0,0,1,.12-3.37,3.81,3.81,0,0,1,.7-1.82,3.89,3.89,0,0,1,1.6-1.26,5.85,5.85,0,0,1,2.34-.43,5.87,5.87,0,0,1,2.28.41,3.77,3.77,0,0,1,1.63,1.25,3.73,3.73,0,0,1,.73,1.8,32.61,32.61,0,0,1,.12,3.42ZM16.47,7.1a4.92,4.92,0,0,0-.12-1.41.48.48,0,0,0-.5-.31.54.54,0,0,0-.49.25,3.46,3.46,0,0,0-.17,1.47v7.38a7,7,0,0,0,.11,1.7.48.48,0,0,0,.52.32.51.51,0,0,0,.54-.37,7.75,7.75,0,0,0,.11-1.76Z"/><path d="M31.89,3,29.8,18.85H23.56L21.18,3h4.34q.75,6.53,1.08,11.05.31-4.58.67-8.11L27.56,3Z"/><path d="M36.7,3V18.85H32.59V3Zm-.78-3V2.54H33.37V0Z"/><path d="M38.35,3h3.08a19.32,19.32,0,0,1,4,.27,3,3,0,0,1,1.6.9,2.88,2.88,0,0,1,.68,1.39,21.06,21.06,0,0,1,.14,3v5.54a13.13,13.13,0,0,1-.2,2.85,2.12,2.12,0,0,1-.7,1.12,2.92,2.92,0,0,1-1.23.57,11.74,11.74,0,0,1-2.21.16H38.35Zm4.11,2.7v10.4c.59,0,1-.12,1.09-.35a5.14,5.14,0,0,0,.21-1.94V7.71a7.7,7.7,0,0,0-.07-1.38.67.67,0,0,0-.31-.45A2.1,2.1,0,0,0,42.46,5.74Z"/><path d="M53.52,3V18.85H49.4V3Zm-.79-3V2.54H50.19V0Z"/><path d="M64.77,9.92H60.65V7.17a4.87,4.87,0,0,0-.13-1.49.56.56,0,0,0-.58-.3.6.6,0,0,0-.64.36,5.48,5.48,0,0,0-.14,1.56v7.35a5.07,5.07,0,0,0,.14,1.5.7.7,0,0,0,1.21,0,5.5,5.5,0,0,0,.14-1.65v-2h4.12v.62a12.21,12.21,0,0,1-.35,3.48,3.59,3.59,0,0,1-1.53,1.8,5.33,5.33,0,0,1-2.93.77,6.14,6.14,0,0,1-3-.65,3.17,3.17,0,0,1-1.55-1.82,12,12,0,0,1-.38-3.48V8.61a20,20,0,0,1,.12-2.56,3.59,3.59,0,0,1,.69-1.65,4,4,0,0,1,1.62-1.24,6.61,6.61,0,0,1,5.36.25,3.32,3.32,0,0,1,1.55,1.75,10.36,10.36,0,0,1,.38,3.26Z"/><path d="M75,7.82H71.13V6.65a2.41,2.41,0,0,0-.14-1,.54.54,0,0,0-.49-.23.61.61,0,0,0-.56.3,1.75,1.75,0,0,0-.19.92A2.61,2.61,0,0,0,70,7.79a3.11,3.11,0,0,0,1.16,1,11.81,11.81,0,0,1,3.46,2.68,6.08,6.08,0,0,1,.71,3.37,6,6,0,0,1-.39,2.49,3.16,3.16,0,0,1-1.53,1.34,6.1,6.1,0,0,1-2.64.54,6,6,0,0,1-2.82-.62A3.08,3.08,0,0,1,66.39,17,8.12,8.12,0,0,1,66,14.22v-1h3.82v1.93A2.65,2.65,0,0,0,70,16.25a.63.63,0,0,0,.58.25.67.67,0,0,0,.61-.32,1.84,1.84,0,0,0,.2-.95A3,3,0,0,0,71,13.4,12.57,12.57,0,0,0,69.08,12a18.89,18.89,0,0,1-2-1.47,3.41,3.41,0,0,1-.82-1.27,5.54,5.54,0,0,1-.33-2.07,5.76,5.76,0,0,1,.46-2.66,3.09,3.09,0,0,1,1.5-1.31,5.9,5.9,0,0,1,2.5-.47,6.59,6.59,0,0,1,2.73.51,2.84,2.84,0,0,1,1.49,1.31A6.74,6.74,0,0,1,75,7.2Z"/></g></g></svg>