<svg xmlns="http://www.w3.org/2000/svg" width="90.7" height="19.1"><g fill="#FFF"><path d="M1030 2525 l0 -555 60 0 60 0 0 -60 0 -60 1425 0 1425 0 0 555 0 555
-60 0 -60 0 0 60 0 60 -1425 0 -1425 0 0 -555z m2800 0 l0 -505 -1375 0 -1375
0 0 505 0 505 1375 0 1375 0 0 -505z"/>
<path d="M2860 2645 c0 -69 -2 -125 -5 -125 -3 0 -17 8 -31 17 -36 23 -108 21
-142 -3 -121 -89 -36 -283 107 -244 22 6 43 15 46 20 9 15 25 12 25 -5 0 -10
10 -15 30 -15 l30 0 0 240 0 240 -30 0 -30 0 0 -125z m-47 -146 c50 -23 61
-91 23 -136 -19 -22 -32 -28 -65 -28 -50 0 -79 26 -88 78 -5 31 -1 40 25 67
32 32 64 38 105 19z"/>
<path d="M1458 2720 c-45 -24 -95 -84 -108 -130 -45 -162 54 -301 214 -302 80
0 130 23 120 55 -9 31 -7 30 -61 11 -84 -30 -169 3 -203 79 -35 76 -24 146 33
205 51 53 117 62 189 26 25 -13 27 -12 37 17 10 29 9 31 -24 45 -50 20 -152
17 -197 -6z"/>
<path d="M1867 2724 c-3 -3 -3 -29 0 -56 5 -41 3 -50 -8 -46 -8 3 -16 18 -19
34 -4 20 -11 29 -24 29 -11 0 -20 -6 -22 -13 -1 -7 0 -8 3 -2 2 5 12 10 20 10
11 0 14 -8 11 -29 -2 -17 -1 -28 3 -25 4 2 9 -1 11 -8 3 -7 12 -9 22 -5 16 6
18 15 13 57 -5 44 -4 49 16 53 21 4 21 4 1 6 -11 0 -23 -2 -27 -5z"/>
<path d="M1894 2676 c-3 -8 -4 -25 -2 -38 3 -17 5 -13 9 15 5 38 2 47 -7 23z"/>
<path d="M1955 2679 c-4 -5 -4 -22 -1 -35 4 -14 3 -24 -1 -21 -4 2 -17 1 -28
-4 -19 -8 -19 -9 0 -6 19 2 65 -35 65 -53 0 -5 4 -11 9 -14 5 -4 7 3 4 13 -3
13 2 23 16 30 12 7 21 17 21 24 0 8 -4 7 -11 -3 -8 -12 -12 -12 -16 -2 -4 10
-8 9 -17 -4 -7 -9 -18 -14 -24 -10 -17 10 -15 22 6 42 16 17 16 18 0 11 -13
-5 -18 -1 -18 13 0 10 8 21 18 23 15 4 15 5 0 6 -9 0 -20 -4 -23 -10z"/>
<path d="M2490 2655 c-10 -12 -10 -18 0 -30 20 -25 55 -15 55 15 0 30 -35 40
-55 15z"/>
<path d="M3020 2655 c-10 -12 -10 -18 0 -30 20 -25 55 -15 55 15 0 30 -35 40
-55 15z"/>
<path d="M1758 2623 c7 -3 16 -2 19 1 4 3 -2 6 -13 5 -11 0 -14 -3 -6 -6z"/>
<path d="M1770 2601 c0 -6 5 -13 12 -17 7 -5 5 -11 -7 -21 -11 -7 -14 -13 -9
-13 6 0 23 14 40 32 16 18 22 27 12 20 -11 -9 -18 -10 -23 -2 -8 13 -25 13
-25 1z"/>
<path d="M1675 2591 c-4 -7 0 -8 10 -4 10 3 21 0 27 -8 8 -12 9 -11 5 1 -5 18
-33 25 -42 11z"/>
<path d="M1900 2596 c0 -2 7 -7 16 -10 8 -3 12 -2 9 4 -6 10 -25 14 -25 6z"/>
<path d="M1881 2579 c-1 -9 7 -23 17 -30 15 -12 16 -12 6 1 -6 8 -14 22 -17
30 -5 13 -6 12 -6 -1z"/>
<path d="M2065 2569 c-4 -6 -4 -13 -1 -16 3 -4 6 -1 6 6 0 8 8 11 20 8 11 -3
18 -1 14 4 -7 12 -31 11 -39 -2z"/>
<path d="M1822 2553 c2 -10 10 -18 18 -18 22 0 18 29 -3 33 -14 3 -18 -1 -15
-15z m28 -3 c0 -5 -4 -10 -10 -10 -5 0 -10 5 -10 10 0 6 5 10 10 10 6 0 10 -4
10 -10z"/>
<path d="M2150 2539 c0 -11 132 -261 136 -256 7 10 134 255 134 260 0 4 -14 7
-30 7 -22 0 -33 -6 -39 -22 -5 -13 -21 -50 -36 -83 l-27 -60 -41 83 c-37 73
-44 82 -69 82 -16 0 -28 -5 -28 -11z"/>
<path d="M2490 2420 l0 -130 25 0 25 0 0 130 0 130 -25 0 -25 0 0 -130z"/>
<path d="M3020 2420 l0 -130 25 0 25 0 0 130 0 130 -25 0 -25 0 0 -130z"/>
<path d="M3219 2535 c-52 -28 -79 -100 -59 -160 24 -72 112 -111 184 -81 33
14 36 18 26 36 -9 16 -15 18 -30 10 -34 -18 -70 -11 -101 19 -68 68 -3 171 89
140 28 -9 36 -9 43 2 13 21 11 25 -16 37 -35 16 -104 14 -136 -3z"/>
<path d="M3470 2530 c-23 -23 -26 -68 -7 -93 6 -9 34 -25 60 -36 40 -17 48
-25 45 -43 -3 -20 -9 -23 -43 -22 -22 0 -47 4 -56 8 -29 13 -31 -22 -3 -41 39
-25 109 -22 139 7 52 49 25 112 -61 140 -23 8 -34 18 -34 30 0 28 33 42 66 30
34 -13 54 1 34 25 -20 24 -115 20 -140 -5z"/>
<path d="M1758 2510 c2 -16 6 -30 8 -30 2 0 4 14 4 30 0 17 -4 30 -8 30 -5 0
-7 -13 -4 -30z"/>
<path d="M1958 2533 c7 -3 16 -2 19 1 4 3 -2 6 -13 5 -11 0 -14 -3 -6 -6z"/>
<path d="M2015 2518 c-3 -7 -6 -29 -7 -48 -2 -19 -11 -42 -22 -50 -18 -15 -18
-16 0 -30 17 -14 18 -13 6 2 -11 14 -10 18 6 27 13 7 18 18 15 29 -3 12 3 22
19 29 18 9 19 12 6 12 -21 1 -24 27 -5 34 9 4 9 6 -1 6 -7 1 -15 -5 -17 -11z"/>
<path d="M1907 2501 c6 -22 -12 -30 -20 -8 -2 8 -4 7 -3 -2 1 -8 7 -16 13 -19
17 -5 29 26 15 40 -8 8 -9 5 -5 -11z"/>
<path d="M1794 2495 c-8 -20 2 -45 18 -45 10 0 10 3 -1 9 -8 5 -12 18 -8 30 6
24 -1 29 -9 6z"/>
<path d="M1958 2503 c7 -3 16 -2 19 1 4 3 -2 6 -13 5 -11 0 -14 -3 -6 -6z"/>
<path d="M1693 2475 c-3 -9 -3 -18 -1 -21 3 -3 8 4 11 16 6 23 -1 27 -10 5z"/>
<path d="M1841 2467 c-13 -21 -12 -21 5 -5 10 10 16 20 13 22 -3 3 -11 -5 -18
-17z"/>
<path d="M1730 2461 c0 -5 8 -7 19 -4 14 3 21 -3 29 -26 10 -28 9 -30 -11 -28
-13 1 -23 -4 -25 -15 -5 -23 26 -24 43 -2 10 14 16 14 36 5 23 -11 23 -11 5 3
-11 9 -22 16 -26 16 -3 0 -11 14 -17 30 -8 20 -18 30 -32 30 -12 0 -21 -4 -21
-9z m40 -71 c0 -5 -4 -10 -10 -10 -5 0 -10 5 -10 10 0 6 5 10 10 10 6 0 10 -4
10 -10z"/>
<path d="M1952 2456 c7 -8 15 -12 17 -11 5 6 -10 25 -20 25 -5 0 -4 -6 3 -14z"/>
<path d="M1880 2446 c0 -2 7 -7 16 -10 8 -3 12 -2 9 4 -6 10 -25 14 -25 6z"/>
<path d="M1860 2421 c0 -6 4 -13 10 -16 6 -3 7 1 4 9 -7 18 -14 21 -14 7z"/>
<path d="M2026 2421 c-3 -4 6 -6 19 -3 14 2 25 6 25 8 0 8 -39 4 -44 -5z"/>
<path d="M1940 2389 c-13 -9 -12 -10 2 -6 18 6 48 -21 48 -44 0 -17 19 -39 34
-39 5 0 2 6 -8 13 -10 7 -17 22 -14 33 3 18 4 18 26 -4 12 -12 22 -18 22 -13
0 12 -26 32 -44 35 -8 1 -23 9 -33 19 -14 12 -22 13 -33 6z"/>
<path d="M2040 2386 c7 -7 13 -7 20 0 6 6 3 10 -10 10 -13 0 -16 -4 -10 -10z"/>
<path d="M1847 2373 c-4 -3 -7 -11 -7 -17 0 -7 3 -7 8 0 4 7 18 14 32 17 l25
4 -26 2 c-14 0 -29 -2 -32 -6z"/>
<path d="M1902 2355 c-7 -14 -12 -31 -11 -38 0 -7 4 -2 10 11 5 13 13 21 18
18 5 -3 7 3 4 14 -7 25 -7 25 -21 -5z"/>
<path d="M1792 2310 c0 -14 2 -19 5 -12 2 6 2 18 0 25 -3 6 -5 1 -5 -13z"/>
<path d="M1820 2290 c-9 -6 -10 -10 -3 -10 6 0 15 5 18 10 8 12 4 12 -15 0z"/></g></g></svg>
